<svg width="20" height="20" viewBox="0 0 20 20" fill="none" xmlns="http://www.w3.org/2000/svg">
<path d="M0.664062 9.7154L3.26003 6.79574C3.60709 6.40518 4.03296 6.09256 4.50957 5.87848C4.98619 5.6644 5.50275 5.55372 6.02524 5.55371H6.21298M0.664062 17.5764H5.75057L9.44985 14.8019C9.44985 14.8019 10.199 14.296 11.2995 13.4147C13.6115 11.565 11.2995 8.63706 8.98744 10.1778C7.1045 11.4328 5.28816 12.4899 5.28816 12.4899" stroke="#5A5A5A" stroke-width="1.25" stroke-linecap="round" stroke-linejoin="round"/>
<path d="M6.21875 12.0275V6.01614C6.21875 5.52559 6.41362 5.05512 6.7605 4.70825C7.10737 4.36138 7.57783 4.1665 8.06839 4.1665H17.3166C17.8071 4.1665 18.2776 4.36138 18.6245 4.70825C18.9713 5.05512 19.1662 5.52559 19.1662 6.01614V11.5651C19.1662 12.0556 18.9713 12.5261 18.6245 12.873C18.2776 13.2198 17.8071 13.4147 17.3166 13.4147H11.3053" stroke="#5A5A5A" stroke-width="1.25"/>
<path d="M16.8546 8.79981L16.8639 8.78963M8.53125 8.79981L8.5405 8.78963M12.6929 10.6402C12.2024 10.6402 11.7319 10.4453 11.385 10.0984C11.0382 9.75157 10.8433 9.28111 10.8433 8.79056C10.8433 8.3 11.0382 7.82954 11.385 7.48266C11.7319 7.13579 12.2024 6.94092 12.6929 6.94092C13.1835 6.94092 13.654 7.13579 14.0008 7.48266C14.3477 7.82954 14.5426 8.3 14.5426 8.79056C14.5426 9.28111 14.3477 9.75157 14.0008 10.0984C13.654 10.4453 13.1835 10.6402 12.6929 10.6402Z" stroke="#5A5A5A" stroke-width="1.25" stroke-linecap="round" stroke-linejoin="round"/>
</svg>
