<svg width="19" height="19" viewBox="0 0 19 19" fill="none" xmlns="http://www.w3.org/2000/svg">
<path d="M9.50001 19C11.3789 19 13.2157 18.4428 14.7779 17.399C16.3402 16.3551 17.5578 14.8714 18.2769 13.1355C18.9959 11.3996 19.184 9.48948 18.8175 7.64666C18.4509 5.80385 17.5461 4.11111 16.2175 2.78252C14.8889 1.45392 13.1962 0.549135 11.3534 0.182575C9.51055 -0.183983 7.60042 0.00414848 5.86453 0.723179C4.12863 1.44221 2.64494 2.65985 1.60107 4.22211C0.557196 5.78438 3.24249e-05 7.6211 3.24249e-05 9.50002C0.0027256 12.0187 1.00448 14.4335 2.78549 16.2145C4.5665 17.9956 6.98129 18.9973 9.50001 19ZM8.82144 1.39178V2.71432C8.82144 2.89429 8.89293 3.06688 9.02019 3.19414C9.14745 3.32139 9.32005 3.39289 9.50001 3.39289C9.67998 3.39289 9.85258 3.32139 9.97983 3.19414C10.1071 3.06688 10.1786 2.89429 10.1786 2.71432V1.39178C12.0946 1.5542 13.8915 2.38913 15.2512 3.74884C16.6109 5.10856 17.4458 6.9054 17.6082 8.82145H16.2857C16.1057 8.82145 15.9332 8.89294 15.8059 9.0202C15.6786 9.14745 15.6071 9.32005 15.6071 9.50002C15.6071 9.67999 15.6786 9.85258 15.8059 9.97984C15.9332 10.1071 16.1057 10.1786 16.2857 10.1786H17.6082C17.4458 12.0946 16.6109 13.8915 15.2512 15.2512C13.8915 16.6109 12.0946 17.4458 10.1786 17.6083V16.2857C10.1786 16.1058 10.1071 15.9332 9.97983 15.8059C9.85258 15.6786 9.67998 15.6071 9.50001 15.6071C9.32005 15.6071 9.14745 15.6786 9.02019 15.8059C8.89293 15.9332 8.82144 16.1058 8.82144 16.2857V17.6083C6.90539 17.4458 5.10855 16.6109 3.74884 15.2512C2.38913 13.8915 1.5542 12.0946 1.39178 10.1786H2.71431C2.89428 10.1786 3.06688 10.1071 3.19413 9.97984C3.32139 9.85258 3.39288 9.67999 3.39288 9.50002C3.39288 9.32005 3.32139 9.14745 3.19413 9.0202C3.06688 8.89294 2.89428 8.82145 2.71431 8.82145H1.39178C1.5542 6.9054 2.38913 5.10856 3.74884 3.74884C5.10855 2.38913 6.90539 1.5542 8.82144 1.39178Z" fill="#240301"/>
<path d="M9.01998 12.0162C9.14723 12.1434 9.3198 12.2148 9.49973 12.2148C9.67966 12.2148 9.85223 12.1434 9.97948 12.0162L12.0152 9.98046C12.1424 9.85321 12.2139 9.68064 12.2139 9.50071C12.2139 9.32078 12.1424 9.14821 12.0152 9.02096L9.97948 6.98525C9.85223 6.85804 9.67966 6.78657 9.49973 6.78657C9.3198 6.78657 9.14723 6.85804 9.01998 6.98525L6.98427 9.02096C6.85706 9.14821 6.7856 9.32078 6.7856 9.50071C6.7856 9.68064 6.85706 9.85321 6.98427 9.98046L9.01998 12.0162ZM9.49973 8.4245L10.5759 9.50071L9.49973 10.5769L8.42352 9.50071L9.49973 8.4245Z" fill="#240301"/>
</svg>
