<svg width="32" height="32" viewBox="0 0 32 32" fill="none" xmlns="http://www.w3.org/2000/svg">
<rect width="32" height="32" rx="16" fill="#B20404"/>
<path d="M20.8181 23.9999C20.1209 23.9999 19.1416 23.7477 17.6752 22.9284C15.8919 21.9284 14.5126 21.0052 12.739 19.2362C11.029 17.5273 10.1969 16.4208 9.03222 14.3015C7.71649 11.9086 7.94078 10.6543 8.1915 10.1183C8.49007 9.47754 8.93079 9.09432 9.50044 8.71396C9.824 8.50197 10.1664 8.32025 10.5233 8.1711C10.559 8.15574 10.5922 8.1411 10.6219 8.12788C10.7987 8.04824 11.0665 7.92788 11.4058 8.05646C11.6323 8.14146 11.8344 8.31539 12.1508 8.62789C12.7998 9.2679 13.6866 10.6933 14.0137 11.3933C14.2334 11.8651 14.3787 12.1765 14.3791 12.5258C14.3791 12.9347 14.1734 13.2501 13.9237 13.5904C13.8769 13.6544 13.8305 13.7155 13.7855 13.7747C13.5137 14.1319 13.4541 14.2351 13.4933 14.4194C13.573 14.7898 14.1669 15.8923 15.143 16.8662C16.1191 17.8401 17.1898 18.3966 17.5616 18.4759C17.7538 18.5169 17.8591 18.4548 18.2277 18.1734C18.2805 18.133 18.3348 18.0912 18.3916 18.0494C18.7723 17.7662 19.0731 17.5659 19.4723 17.5659H19.4745C19.822 17.5659 20.1195 17.7166 20.6124 17.9651C21.2552 18.2894 22.7235 19.1648 23.3674 19.8145C23.6806 20.1302 23.8553 20.3316 23.9406 20.5577C24.0692 20.898 23.9481 21.1648 23.8692 21.3434C23.856 21.373 23.8413 21.4055 23.826 21.4416C23.6756 21.7979 23.4928 22.1396 23.2799 22.4623C22.9002 23.0302 22.5156 23.4699 21.8734 23.7688C21.5437 23.9248 21.1828 24.0038 20.8181 23.9999Z" fill="white"/>
</svg>
