<svg width="26" height="22" viewBox="0 0 26 22" fill="none" xmlns="http://www.w3.org/2000/svg">
<path fill-rule="evenodd" clip-rule="evenodd" d="M12.9679 20.7634C9.1891 20.7634 5.96094 20.1918 5.96094 17.9028C5.96094 15.6138 9.1681 13.6211 12.9679 13.6211C16.7468 13.6211 19.9749 15.5951 19.9749 17.8829C19.9749 20.1708 16.7678 20.7634 12.9679 20.7634Z" stroke="#240301" stroke-width="1.5" stroke-linecap="round" stroke-linejoin="round"/>
<path fill-rule="evenodd" clip-rule="evenodd" d="M12.9678 10.3572C15.4481 10.3572 17.4594 8.347 17.4594 5.86667C17.4594 3.38633 15.4481 1.375 12.9678 1.375C10.4874 1.375 8.47609 3.38633 8.47609 5.86667C8.46909 8.33767 10.4641 10.349 12.9363 10.3572H12.9678Z" stroke="#240301" stroke-width="1.5" stroke-linecap="round" stroke-linejoin="round"/>
<path d="M20.4227 9.12354C21.8658 8.73737 22.9298 7.42137 22.9298 5.85454C22.9298 4.22004 21.7713 2.85504 20.229 2.54004" stroke="#240301" stroke-width="1.5" stroke-linecap="round" stroke-linejoin="round"/>
<path d="M21.1006 12.8018C23.1469 12.8018 24.8946 14.1889 24.8946 15.4279C24.8946 16.1571 24.2914 16.9516 23.3768 17.1663" stroke="#240301" stroke-width="1.5" stroke-linecap="round" stroke-linejoin="round"/>
<path d="M5.51468 9.12354C4.07035 8.73737 3.00635 7.42137 3.00635 5.85454C3.00635 4.22004 4.16601 2.85504 5.70718 2.54004" stroke="#240301" stroke-width="1.5" stroke-linecap="round" stroke-linejoin="round"/>
<path d="M4.8355 12.8018C2.78917 12.8018 1.0415 14.1889 1.0415 15.4279C1.0415 16.1571 1.64467 16.9516 2.5605 17.1663" stroke="#240301" stroke-width="1.5" stroke-linecap="round" stroke-linejoin="round"/>
</svg>
