<svg width="18" height="20" viewBox="0 0 18 20" fill="none" xmlns="http://www.w3.org/2000/svg">
<path d="M14.5024 6.40096C14.5024 4.96853 13.9334 3.59478 12.9205 2.5819C11.9076 1.56903 10.5339 1 9.10144 1C7.66901 1 6.29526 1.56903 5.28238 2.5819C4.26951 3.59478 3.70048 4.96853 3.70048 6.40096C3.70048 12.7021 1 14.5024 1 14.5024H17.2029C17.2029 14.5024 14.5024 12.7021 14.5024 6.40096Z" fill="#B20404" stroke="#B20404" stroke-width="1.5" stroke-linecap="round" stroke-linejoin="round"/>
<path d="M10.6575 18.103C10.4993 18.3758 10.2721 18.6023 9.99881 18.7597C9.7255 18.9171 9.41564 19 9.10024 19C8.78485 19 8.47498 18.9171 8.20168 18.7597C7.92838 18.6023 7.70123 18.3758 7.54297 18.103" stroke="#B20404" stroke-width="1.5" stroke-linecap="round" stroke-linejoin="round"/>
</svg>
