<svg width="22" height="16" viewBox="0 0 22 16" fill="none" xmlns="http://www.w3.org/2000/svg">
<path d="M10 12V10.5C10 8.614 10 7.672 9.414 7.086C8.828 6.5 7.886 6.5 6 6.5H5.4C5.029 6.5 4.843 6.5 4.686 6.512C4.25411 6.54563 3.83058 6.64932 3.432 6.819M10 12H15M10 12H2.1C2.007 12 1.96 12 1.922 11.997C1.68461 11.9785 1.46162 11.8758 1.29316 11.7075C1.12469 11.5392 1.0218 11.3164 1.003 11.079C1 11.039 1 10.993 1 10.9C1 10.529 1 10.343 1.012 10.186C1.03955 9.83553 1.11319 9.49022 1.231 9.159M8.5 12C8.5 12.7956 8.18393 13.5587 7.62132 14.1213C7.05871 14.6839 6.29565 15 5.5 15C4.70435 15 3.94129 14.6839 3.37868 14.1213C2.81607 13.5587 2.5 12.7956 2.5 12M11 1H11.528C12.731 1 13.332 1 13.815 1.299C14.299 1.597 14.568 2.135 15.105 3.211L18 9M17.143 7L17.824 6.498C18.087 6.304 18.219 6.208 18.31 6.081C18.3723 5.99518 18.4206 5.89999 18.453 5.799C18.5 5.65 18.5 5.487 18.5 5.161C18.5 4.543 18.5 4.235 18.368 4.004C18.2794 3.84905 18.151 3.72061 17.996 3.632C17.766 3.5 17.456 3.5 16.839 3.5H15.5" stroke="#9E9D9D" stroke-width="1.5" stroke-linecap="round"/>
<path d="M17.0012 14.8298C17.6427 15.0563 18.3422 15.0581 18.9848 14.8347C19.6275 14.6114 20.1751 14.1762 20.5379 13.6007C20.9007 13.0251 21.0571 12.3433 20.9814 11.6672C20.9057 10.9911 20.6024 10.3607 20.1213 9.87966C19.6402 9.39858 19.0099 9.09531 18.3338 9.01961C17.6577 8.94391 16.9759 9.10028 16.4003 9.46307C15.8248 9.82585 15.3896 10.3735 15.1663 11.0161C14.9429 11.6588 14.9446 12.3583 15.1712 12.9998" stroke="#9E9D9D" stroke-width="1.5" stroke-linecap="round"/>
</svg>
