<svg width="28" height="28" viewBox="0 0 28 28" fill="none" xmlns="http://www.w3.org/2000/svg">
<path d="M23.0968 5.03838C23.1591 5.27038 23.1907 5.50953 23.1908 5.74973L23.1903 8.50022L23.2701 8.50206C23.981 8.52874 24.654 8.82989 25.1475 9.34227C25.6411 9.85465 25.9169 10.5384 25.917 11.2498V22.25C25.917 22.9793 25.6273 23.6788 25.1115 24.1945C24.5958 24.7103 23.8963 25 23.167 25H5.75004C5.02068 25 4.3212 24.7103 3.80547 24.1945C3.28974 23.6788 3 22.9793 3 22.25V11.2498L3.00138 11.1558L3.00596 11.0733C2.96686 10.44 3.14792 9.81259 3.51846 9.29745C3.88901 8.78232 4.42625 8.41112 5.03915 8.24676L19.7289 3.09365C20.4334 2.90495 21.184 3.00383 21.8156 3.36853C22.4472 3.73324 22.9081 4.3339 23.0968 5.03838ZM23.167 10.3331H5.75004C5.5187 10.3331 5.29589 10.4205 5.1263 10.5778C4.95671 10.7352 4.85289 10.9508 4.83565 11.1815L4.83336 11.2503V22.2504C4.8334 22.4816 4.9208 22.7042 5.07804 22.8737C5.23528 23.0432 5.45075 23.147 5.68129 23.1643L5.75004 23.1666H23.167C23.3982 23.1667 23.621 23.0794 23.7906 22.9221C23.9601 22.7649 24.064 22.5493 24.0813 22.3187L24.0836 22.25V11.2498C24.0836 11.0186 23.9962 10.796 23.839 10.6265C23.6817 10.457 23.4662 10.3532 23.2357 10.3359L23.167 10.3331ZM18.5836 14.9165C19.0698 14.9165 19.5361 15.1097 19.8799 15.4535C20.2238 15.7973 20.4169 16.2636 20.4169 16.7499C20.4169 17.2361 20.2238 17.7024 19.8799 18.0463C19.5361 18.3901 19.0698 18.5832 18.5836 18.5832C18.0973 18.5832 17.631 18.3901 17.2872 18.0463C16.9434 17.7024 16.7502 17.2361 16.7502 16.7499C16.7502 16.2636 16.9434 15.7973 17.2872 15.4535C17.631 15.1097 18.0973 14.9165 18.5836 14.9165ZM20.2702 4.84909L20.2482 4.85413L9.85539 8.49977H21.357V5.74973C21.357 5.69641 21.3524 5.6432 21.3432 5.59068L21.3258 5.51277C21.266 5.28931 21.1239 5.09673 20.9281 4.97364C20.7322 4.85056 20.4975 4.80606 20.2702 4.84909Z" fill="#240301"/>
</svg>
